<!-- Generated by IcoMoon.io -->
<svg version="1.1" xmlns="http://www.w3.org/2000/svg" width="15" height="16" viewBox="0 0 384 448">
<path d="M87.25 156.25v247.75h-82.5v-247.75h82.5zM92.5 79.75c0.25 23.75-17.75 42.75-46.5 42.75v0h-0.5c-27.75 0-45.5-19-45.5-42.75 0-24.25 18.5-42.75 46.5-42.75 28.25 0 45.75 18.5 46 42.75zM384 262v142h-82.25v-132.5c0-33.25-12-56-41.75-56-22.75 0-36.25 15.25-42.25 30-2 5.5-2.75 12.75-2.75 20.25v138.25h-82.25c1-224.5 0-247.75 0-247.75h82.25v36h-0.5c10.75-17 30.25-41.75 74.75-41.75 54.25 0 94.75 35.5 94.75 111.5z"></path>
</svg>
