<!-- Generated by IcoMoon.io -->
<svg version="1.1" xmlns="http://www.w3.org/2000/svg" width="13" height="16" viewBox="0 0 320 448">
<path d="M0 149.25c0-92.25 84.5-149.25 170-149.25 78.5 0 150 54 150 136.75 0 77.75-39.75 164-128.25 164-21 0-47.5-10.5-57.75-30-19 75.25-17.5 86.5-59.5 144l-3.5 1.25-2.25-2.5c-1.5-15.75-3.75-31.25-3.75-47 0-51 23.5-124.75 35-174.25-6.25-12.75-8-28.25-8-42.25 0-25.25 17.5-57.25 46-57.25 21 0 32.25 16 32.25 35.75 0 32.5-22 63-22 94.5 0 21.5 17.75 36.5 38.5 36.5 57.5 0 75.25-83 75.25-127.25 0-59.25-42-91.5-98.75-91.5-66 0-117 47.5-117 114.5 0 32.25 19.75 48.75 19.75 56.5 0 6.5-4.75 29.5-13 29.5-1.25 0-3-0.5-4.25-0.75-35.75-10.75-48.75-58.5-48.75-91.25z"></path>
</svg>
