<svg version="1.1" xmlns="http://www.w3.org/2000/svg" width="18" height="16" viewBox="0 0 512 512">
<path d="M362.016 319.056l-0.16-0.096-1.056 0.848 1.504 0.224c0 0 64.832 163.264 51.248 186.928-26.704 20.24-141.472-89.52-156.384-104.016l0.096 0.56c0 0-128.944 128.768-158.8 105.744-17.888-12.992 47.152-192.48 47.152-192.48l0.304-0.048c-23.888-13.648-155.088-106.336-145.392-139.696 0.288-20.080 182.624-18.688 188.432-17.904 0.704-4.080 31.952-159.12 67.056-159.12 35.28 0 65.6 158.688 65.968 160.896h0.096l0.032 0.16 0.4-0.848c0 0 188.688-2.896 188.976 16.816 10.688 36.688-149.472 142.032-149.472 142.032z"></path>
</svg>
